<?xml version="1.0" encoding="UTF-8"?>
<svg version="1.1" xmlns="http://www.w3.org/2000/svg" width="500" height="500">
<path d="M0 0 C165 0 330 0 500 0 C500 165 500 330 500 500 C335 500 170 500 0 500 C0 335 0 170 0 0 Z " fill="#B3B3B3" transform="translate(0,0)"/>
<path d="M0 0 C165 0 330 0 500 0 C500 165 500 330 500 500 C335 500 170 500 0 500 C0 335 0 170 0 0 Z M15 15 C15 170.1 15 325.2 15 485 C170.1 485 325.2 485 485 485 C485 329.9 485 174.8 485 15 C329.9 15 174.8 15 15 15 Z " fill="#000000" transform="translate(0,0)"/>
<path d="M0 0 C131.67 0 263.34 0 399 0 C399 21.12 399 42.24 399 64 C267.33 64 135.66 64 0 64 C0 42.88 0 21.76 0 0 Z " fill="#000000" transform="translate(51,50)"/>
<path d="M0 0 C58.74 0 117.48 0 178 0 C178 21.45 178 42.9 178 65 C119.26 65 60.52 65 0 65 C0 43.55 0 22.1 0 0 Z " fill="#010101" transform="translate(272,384)"/>
<path d="M0 0 C22.11 0 44.22 0 67 0 C67 22.11 67 44.22 67 67 C44.89 67 22.78 67 0 67 C0 44.89 0 22.78 0 0 Z " fill="#000000" transform="translate(160,383)"/>
<path d="M0 0 C22.11 0 44.22 0 67 0 C67 22.11 67 44.22 67 67 C44.89 67 22.78 67 0 67 C0 44.89 0 22.78 0 0 Z " fill="#010101" transform="translate(50,383)"/>
<path d="M0 0 C22.11 0 44.22 0 67 0 C67 22.11 67 44.22 67 67 C44.89 67 22.78 67 0 67 C0 44.89 0 22.78 0 0 Z " fill="#000000" transform="translate(272,271)"/>
<path d="M0 0 C10.869375 -0.020625 21.73875 -0.04125 32.9375 -0.0625 C36.37406006 -0.071604 39.81062012 -0.08070801 43.35131836 -0.09008789 C46.05582642 -0.09300674 48.76033493 -0.09555537 51.46484375 -0.09765625 C52.17210098 -0.10026962 52.87935822 -0.102883 53.60804749 -0.10557556 C55.68134933 -0.11285596 57.75456822 -0.11390732 59.82788086 -0.11352539 C61.58327431 -0.11685631 61.58327431 -0.11685631 63.37413025 -0.12025452 C66 0 66 0 67 1 C67.09413687 3.05556661 67.11742998 5.11440181 67.11352539 7.17211914 C67.11364593 7.82644393 67.11376646 8.48076872 67.11389065 9.15492153 C67.11314179 11.28170052 67.10551481 13.40839285 67.09765625 15.53515625 C67.09664917 16.83159058 67.09564209 18.1280249 67.09460449 19.46374512 C67.08935257 24.33000568 67.07539147 29.19625368 67.0625 34.0625 C67.041875 44.931875 67.02125 55.80125 67 67 C44.89 67 22.78 67 0 67 C0 44.89 0 22.78 0 0 Z " fill="#020202" transform="translate(382,271)"/>
<path d="M0 0 C22.11 0 44.22 0 67 0 C67.020625 10.869375 67.04125 21.73875 67.0625 32.9375 C67.071604 36.37406006 67.08070801 39.81062012 67.09008789 43.35131836 C67.09300674 46.05582642 67.09555537 48.76033493 67.09765625 51.46484375 C67.10026962 52.17210098 67.102883 52.87935822 67.10557556 53.60804749 C67.11285596 55.68134933 67.11390732 57.75456822 67.11352539 59.82788086 C67.115746 60.99814316 67.11796661 62.16840546 67.12025452 63.37413025 C67 66 67 66 66 67 C63.94443339 67.09413687 61.88559819 67.11742998 59.82788086 67.11352539 C59.17355607 67.11364593 58.51923128 67.11376646 57.84507847 67.11389065 C55.71829948 67.11314179 53.59160715 67.10551481 51.46484375 67.09765625 C49.52019226 67.09614563 49.52019226 67.09614563 47.53625488 67.09460449 C42.66999432 67.08935257 37.80374632 67.07539147 32.9375 67.0625 C22.068125 67.041875 11.19875 67.02125 0 67 C0 44.89 0 22.78 0 0 Z " fill="#010101" transform="translate(52,160)"/>
<path d="M0 0 C22.11 0 44.22 0 67 0 C67.020625 10.869375 67.04125 21.73875 67.0625 32.9375 C67.071604 36.37406006 67.08070801 39.81062012 67.09008789 43.35131836 C67.09300674 46.05582642 67.09555537 48.76033493 67.09765625 51.46484375 C67.10026962 52.17210098 67.102883 52.87935822 67.10557556 53.60804749 C67.11285596 55.68134933 67.11390732 57.75456822 67.11352539 59.82788086 C67.115746 60.99814316 67.11796661 62.16840546 67.12025452 63.37413025 C67 66 67 66 66 67 C63.94443339 67.09413687 61.88559819 67.11742998 59.82788086 67.11352539 C59.17355607 67.11364593 58.51923128 67.11376646 57.84507847 67.11389065 C55.71829948 67.11314179 53.59160715 67.10551481 51.46484375 67.09765625 C49.52019226 67.09614563 49.52019226 67.09614563 47.53625488 67.09460449 C42.66999432 67.08935257 37.80374632 67.07539147 32.9375 67.0625 C22.068125 67.041875 11.19875 67.02125 0 67 C0 44.89 0 22.78 0 0 Z " fill="#020202" transform="translate(382,160)"/>
<path d="M0 0 C22.11 0 44.22 0 67 0 C67 21.78 67 43.56 67 66 C44.89 66 22.78 66 0 66 C0 44.22 0 22.44 0 0 Z " fill="#010101" transform="translate(50,272)"/>
<path d="M0 0 C21.78 0 43.56 0 66 0 C66 22.11 66 44.22 66 67 C44.22 67 22.44 67 0 67 C0 44.89 0 22.78 0 0 Z " fill="#010101" transform="translate(274,160)"/>
<path d="M0 0 C21.78 0 43.56 0 66 0 C66 22.11 66 44.22 66 67 C44.22 67 22.44 67 0 67 C0 44.89 0 22.78 0 0 Z " fill="#010101" transform="translate(162,160)"/>
<path d="M0 0 C21.78 0 43.56 0 66 0 C66 21.78 66 43.56 66 66 C44.22 66 22.44 66 0 66 C0 44.22 0 22.44 0 0 Z " fill="#000000" transform="translate(160,272)"/>
<path d="M0 0 C22.11 0 44.22 0 67 0 C67 22.11 67 44.22 67 67 C44.89 67 22.78 67 0 67 C0 44.89 0 22.78 0 0 Z M5 5 C5 24.14 5 43.28 5 63 C23.81 63 42.62 63 62 63 C62 43.86 62 24.72 62 5 C43.19 5 24.38 5 5 5 Z " fill="#080808" transform="translate(272,271)"/>
<path d="M0 0 C22.11 0 44.22 0 67 0 C67 22.11 67 44.22 67 67 C44.89 67 22.78 67 0 67 C0 44.89 0 22.78 0 0 Z M4 5 C4 24.14 4 43.28 4 63 C23.14 63 42.28 63 62 63 C62 43.86 62 24.72 62 5 C42.86 5 23.72 5 4 5 Z " fill="#0D0D0D" transform="translate(160,383)"/>
</svg>
